# xmcd
#
# Track frame offsets: 
#        150
#        30890
#        39420
#        58777
#        80322
#        101557
#        123847
#        155059
#
# Disc length: 2385 seconds
#
# Revision: 2
# Processed by: cddbd v1.5.2PL0 Copyright (c) Steve Scherf et al.
# Submitted via: ExactAudioCopy v0.95b4
#
DISCID=57094f08
DTITLE=Kenny Burrell (with Coleman Hawkins) - Bluesy Burrell
DYEAR=1963
DGENRE=Jazz
TTITLE0=Tres Palabras
TTITLE1=No More
TTITLE2=Guilty
TTITLE3=Montono Blues
TTITLE4=I Thought About You
TTITLE5=Out Of This World
TTITLE6=It's Getting Dark
TTITLE7=I Never Knew 
EXTD=Recorded at Van Gelder Studio, Englewood, CA September 14, 1962\n
EXTD=\nKenny Burrell - Guitar\nColeman Hawkins - Tenor Saxophone\nTomm
EXTD=y Flanagan - piano\nMajor Holley - bass\nEddie Locke - drums\nRay
EXTD=Barretto - conga (#1, 4, 6, 7)
EXTT0=Tres Palabras \n
EXTT1=No More
EXTT2=Guilty
EXTT3=Montono Blues
EXTT4=I Thought About You
EXTT5=Out Of This World
EXTT6=It's Getting Dark
EXTT7=I Never Knew - \n\nGildo Mahones - piano (leader]\nLeo Wright - 
EXTT7=alto saxophone\nKenny Burrell - Guitar\nGeorge Tucker - bass\nJi
EXTT7=mmie Smith - drums
PLAYORDER=
